<?xml version="1.0" encoding="UTF-8"?>
<svg version="1.1" xmlns="http://www.w3.org/2000/svg" width="392" height="303">
<path d="M0 0 C129.36 0 258.72 0 392 0 C392 99.99 392 199.98 392 303 C262.64 303 133.28 303 0 303 C0 203.01 0 103.02 0 0 Z " fill="#D5F6E1" transform="translate(0,0)"/>
<path d="M0 0 C129.36 0 258.72 0 392 0 C392 99.99 392 199.98 392 303 C262.64 303 133.28 303 0 303 C0 203.01 0 103.02 0 0 Z M32 32 C32 117.8 32 203.6 32 292 C36.29 291.34 40.58 290.68 45 290 C49.65027902 289.2968745 54.30254107 288.60886148 58.95678711 287.93261719 C60.31976768 287.7335035 61.68242408 287.53215264 63.04467773 287.328125 C91.80990901 283.0251946 120.80797732 280.3978645 149.79811478 278.18278503 C152.24400754 277.99567724 154.68974383 277.80661345 157.13546753 277.61730957 C219.39628603 272.8136216 281.8279525 269.62003027 344.26245117 268.34106445 C344.98819839 268.32490082 345.71394562 268.30873718 346.46168518 268.29208374 C348.37494906 268.24972697 350.2883024 268.21146342 352.20166016 268.17358398 C356.8129001 267.9628505 361.4068559 267.45931441 366 267 C366 197.7 366 128.4 366 57 C345.21 56.34 324.42 55.68 303 55 C292.16394808 54.5938828 281.33172889 54.18327438 270.5 53.6875 C269.84983162 53.65804417 269.19966324 53.62858833 268.52979279 53.5982399 C189.33116647 50.00775485 110.27349419 45.04558236 32 32 Z " fill="#F5F4EF" transform="translate(0,0)"/>
<path d="M0 0 C1.32 0 2.64 0 4 0 C4 99.99 4 199.98 4 303 C2.68 303 1.36 303 0 303 C0 203.01 0 103.02 0 0 Z " fill="#000000" transform="translate(0,0)"/>
<path d="M0 0 C0.680625 0.165 1.36125 0.33 2.0625 0.5 C3.0525 0.5 4.0425 0.5 5.0625 0.5 C2.7525 2.81 0.4425 5.12 -1.9375 7.5 C-0.6175 6.84 0.7025 6.18 2.0625 5.5 C2.7225 5.5 3.3825 5.5 4.0625 5.5 C5.59464888 8.56429776 5.29188548 11.1165642 5.0625 14.5 C3.25257928 18.59613637 0.9265796 21.23195328 -2.9375 23.5 C-7.00427681 24.39438512 -10.4007444 24.41119895 -14.0390625 22.25390625 C-18.10657942 18.89778632 -19.60033519 16.64942564 -20.4375 11.3125 C-19.8210817 6.61231048 -18.36354535 4.43229978 -15.140625 1.0390625 C-10.46779875 -2.22528775 -5.30609975 -0.90316592 0 0 Z " fill="#CAF0DC" transform="translate(205.9375,113.5)"/>
<path d="M0 0 C0.680625 0.165 1.36125 0.33 2.0625 0.5 C3.0525 0.5 4.0425 0.5 5.0625 0.5 C-0.8775 6.44 -0.8775 6.44 -6.9375 12.5 C-6.9375 9.5 -6.9375 9.5 -4.9375 6.5 C-6.9175 7.16 -8.8975 7.82 -10.9375 8.5 C-10.9375 10.81 -10.9375 13.12 -10.9375 15.5 C-7.4725 15.005 -7.4725 15.005 -3.9375 14.5 C-3.6075 13.18 -3.2775 11.86 -2.9375 10.5 C-2.2775 10.5 -1.6175 10.5 -0.9375 10.5 C-1.6875 15.25 -1.6875 15.25 -3.9375 17.5 C-9.98990175 18.05021834 -9.98990175 18.05021834 -12.875 16.375 C-14.46740283 13.56487736 -14.39069325 11.67235276 -13.9375 8.5 C-12.4375 6.125 -12.4375 6.125 -9.9375 4.5 C-7.17900058 4.17361266 -4.73265088 4.31365661 -1.9375 4.5 C-1.6075 3.84 -1.2775 3.18 -0.9375 2.5 C-8.4000015 1.82023055 -8.4000015 1.82023055 -15.125 4.5625 C-17.38083216 8.21850384 -17.47591697 10.26958093 -16.9375 14.5 C-15.74982145 17.88031589 -15.03924775 18.43216817 -11.9375 20.5 C-7.73761662 21.1651749 -4.1216388 21.21048328 -0.4375 19 C2.11398528 14.74752454 2.0625 10.41550883 2.0625 5.5 C2.7225 5.5 3.3825 5.5 4.0625 5.5 C5.59464888 8.56429776 5.29188548 11.1165642 5.0625 14.5 C3.25257928 18.59613637 0.9265796 21.23195328 -2.9375 23.5 C-7.00427681 24.39438512 -10.4007444 24.41119895 -14.0390625 22.25390625 C-18.10657942 18.89778632 -19.60033519 16.64942564 -20.4375 11.3125 C-19.8210817 6.61231048 -18.36354535 4.43229978 -15.140625 1.0390625 C-10.46779875 -2.22528775 -5.30609975 -0.90316592 0 0 Z " fill="#5DABAF" transform="translate(205.9375,113.5)"/>
<path d="M0 0 C0.66 0 1.32 0 2 0 C2 0.66 2 1.32 2 2 C3.98 1.67 5.96 1.34 8 1 C8.495 1.99 8.495 1.99 9 3 C8.67 3.66 8.34 4.32 8 5 C8.99 5 9.98 5 11 5 C10.67 5.99 10.34 6.98 10 8 C7.525 7.01 7.525 7.01 5 6 C4.67 6.66 4.34 7.32 4 8 C3.34 8 2.68 8 2 8 C2 7.34 2 6.68 2 6 C0.56720703 6.25910156 0.56720703 6.25910156 -0.89453125 6.5234375 C-5.52652122 7.18331828 -10.03277469 6.91433801 -14.6875 6.625 C-15.52861328 6.58117187 -16.36972656 6.53734375 -17.23632812 6.4921875 C-20.96083794 6.27952715 -24.39207058 5.9962383 -28 5 C-27.34 5 -26.68 5 -26 5 C-26 3.68 -26 2.36 -26 1 C-24.72769531 1.26103516 -24.72769531 1.26103516 -23.4296875 1.52734375 C-19.84139045 2.02185849 -16.72610117 1.89321337 -13.125 1.5625 C-11.97257812 1.46066406 -10.82015625 1.35882813 -9.6328125 1.25390625 C-8.32957031 1.12822266 -8.32957031 1.12822266 -7 1 C-7 1.66 -7 2.32 -7 3 C-6.67 2.67 -6.34 2.34 -6 2 C-4.00041636 1.95919217 -1.99954746 1.95745644 0 2 C0 1.34 0 0.68 0 0 Z " fill="#5E7BA0" transform="translate(286,192)"/>
<path d="M0 0 C0.66 0 1.32 0 2 0 C2.33 0.66 2.66 1.32 3 2 C3.59167969 1.91621094 4.18335938 1.83242187 4.79296875 1.74609375 C9.09939457 1.19110576 12.75552644 0.76773348 17 2 C17 3.32 17 4.64 17 6 C16.38125 5.814375 15.7625 5.62875 15.125 5.4375 C12.95839822 4.76313824 12.95839822 4.76313824 11 6 C10.34 5.34 9.68 4.68 9 4 C10 5 10 5 10 6 C8.72125 6.144375 7.4425 6.28875 6.125 6.4375 C3.74307106 6.70642746 2.15547309 6.92226346 0 8 C-0.66 7.34 -1.32 6.68 -2 6 C-2.66 6 -3.32 6 -4 6 C-4 5.01 -4 4.02 -4 3 C-4.66 3 -5.32 3 -6 3 C-6.33 3.99 -6.66 4.98 -7 6 C-7 4.68 -7 3.36 -7 2 C-5.02 2 -3.04 2 -1 2 C-0.67 1.34 -0.34 0.68 0 0 Z " fill="#506D99" transform="translate(173,192)"/>
<path d="M0 0 C0.556875 0.144375 1.11375 0.28875 1.6875 0.4375 C5.5869134 1.38600596 8.95847144 2 13 2 C15 2 17 2 19 2 C19 3.65 19 5.3 19 7 C16.83125748 6.49396008 15.00032373 6.00016187 13 5 C12.67 5.66 12.34 6.32 12 7 C10 7 10 7 7.125 6.4375 C4.25471202 6.03565968 2.68607357 6.0702053 0 7 C0 4.69 0 2.38 0 0 Z " fill="#7896AF" transform="translate(192,149)"/>
<path d="M0 0 C0.33 0.66 0.66 1.32 1 2 C7.27 2 13.54 2 20 2 C19.67 3.32 19.34 4.64 19 6 C18.34 6 17.68 6 17 6 C17 5.01 17 4.02 17 3 C16.34 3 15.68 3 15 3 C15 3.99 15 4.98 15 6 C14.31292969 5.97679687 13.62585938 5.95359375 12.91796875 5.9296875 C12.01691406 5.91164062 11.11585938 5.89359375 10.1875 5.875 C9.29417969 5.85179687 8.40085937 5.82859375 7.48046875 5.8046875 C4.74597286 5.81714173 4.74597286 5.81714173 2 8 C1.67 7.34 1.34 6.68 1 6 C-1.02463255 5.34786708 -1.02463255 5.34786708 -3 5 C-3 4.01 -3 3.02 -3 2 C-2.01 2 -1.02 2 0 2 C0 1.34 0 0.68 0 0 Z " fill="#4A6796" transform="translate(267,174)"/>
<path d="M0 0 C0.33 0.66 0.66 1.32 1 2 C4.96 2 8.92 2 13 2 C13 1.34 13 0.68 13 0 C13.66 0 14.32 0 15 0 C15.33 0.66 15.66 1.32 16 2 C16.99 2 17.98 2 19 2 C19 3.32 19 4.64 19 6 C13.72 6 8.44 6 3 6 C3 5.01 3 4.02 3 3 C2.34 3 1.68 3 1 3 C0.67 3.99 0.34 4.98 0 6 C0 4.02 0 2.04 0 0 Z " fill="#58759D" transform="translate(199,174)"/>
<path d="M0 0 C0.33 1.32 0.66 2.64 1 4 C1.99 4 2.98 4 4 4 C4.33 3.01 4.66 2.02 5 1 C9.62 1 14.24 1 19 1 C18.67 2.32 18.34 3.64 18 5 C12.06 5.33 6.12 5.66 0 6 C0 4.02 0 2.04 0 0 Z " fill="#466394" transform="translate(76,193)"/>
<path d="M0 0 C0.66 0 1.32 0 2 0 C2 0.66 2 1.32 2 2 C3.98 1.67 5.96 1.34 8 1 C8.33 1.66 8.66 2.32 9 3 C8.67 3.66 8.34 4.32 8 5 C8.99 5 9.98 5 11 5 C10.67 5.99 10.34 6.98 10 8 C7.525 7.01 7.525 7.01 5 6 C4.67 6.66 4.34 7.32 4 8 C3.34 8 2.68 8 2 8 C2 7.34 2 6.68 2 6 C-0.31 6.33 -2.62 6.66 -5 7 C-4.67 5.35 -4.34 3.7 -4 2 C-2.68 2 -1.36 2 0 2 C0 1.34 0 0.68 0 0 Z " fill="#7A98B0" transform="translate(286,192)"/>
<path d="M0 0 C0 0.66 0 1.32 0 2 C3.3 2 6.6 2 10 2 C10.33 3.32 10.66 4.64 11 6 C9 7 9 7 5.6875 6.5 C2.30649056 6.04155804 0.25180901 6.23486847 -3 7 C-4 6 -4 6 -4.0625 3.4375 C-4.041875 2.633125 -4.02125 1.82875 -4 1 C-2 0 -2 0 0 0 Z " fill="#435F92" transform="translate(148,192)"/>
<path d="M0 0 C3.3 0.33 6.6 0.66 10 1 C10 2.98 10 4.96 10 7 C9.01 6.67 8.02 6.34 7 6 C5.32457024 6.28604898 3.65614657 6.61781233 2 7 C1.34 7 0.68 7 0 7 C0 4.69 0 2.38 0 0 Z " fill="#7D9BB1" transform="translate(164,149)"/>
<path d="M0 0 C0 1.98 0 3.96 0 6 C-9.375 6 -9.375 6 -13 5 C-12.67 3.68 -12.34 2.36 -12 1 C-11.06027344 1.01740234 -11.06027344 1.01740234 -10.1015625 1.03515625 C-8.87566406 1.04869141 -8.87566406 1.04869141 -7.625 1.0625 C-6.40683594 1.07990234 -6.40683594 1.07990234 -5.1640625 1.09765625 C-3.16635481 1.00750699 -1.86851135 0 0 0 Z " fill="#4F6B98" transform="translate(115,202)"/>
<path d="M0 0 C3.96 0 7.92 0 12 0 C11.67 1.65 11.34 3.3 11 5 C10.01 5.33 9.02 5.66 8 6 C7.67 5.34 7.34 4.68 7 4 C6.34 4 5.68 4 5 4 C5 4.66 5 5.32 5 6 C3.35 5.67 1.7 5.34 0 5 C0.33 4.01 0.66 3.02 1 2 C0.67 1.67 0.34 1.34 0 1 C0 0.67 0 0.34 0 0 Z " fill="#496595" transform="translate(72,185)"/>
<path d="M0 0 C3.96 0 7.92 0 12 0 C12 1.98 12 3.96 12 6 C7.97007218 5.44687265 3.97977076 4.8441938 0 4 C0 2.68 0 1.36 0 0 Z " fill="#53709B" transform="translate(108,194)"/>
<path d="M0 0 C0 1.65 0 3.3 0 5 C-3.96 4.67 -7.92 4.34 -12 4 C-12 2.68 -12 1.36 -12 0 C-3.42857143 -1.28571429 -3.42857143 -1.28571429 0 0 Z " fill="#4D6997" transform="translate(101,185)"/>
<path d="M0 0 C0 1.65 0 3.3 0 5 C-2.95664519 6.4783226 -5.74229737 6.06032783 -9 6 C-9.5625 4.0625 -9.5625 4.0625 -10 2 C-7.75858472 -0.24141528 -3.06492894 0 0 0 Z " fill="#708EAA" transform="translate(140,193)"/>
<path d="M0 0 C3.3 0 6.6 0 10 0 C10 1.32 10 2.64 10 4 C9.0925 4.144375 8.185 4.28875 7.25 4.4375 C4.78523044 4.86409473 2.41152893 5.35074221 0 6 C0 4.02 0 2.04 0 0 Z " fill="#516E99" transform="translate(219,176)"/>
<path d="M0 0 C0.33 0.66 0.66 1.32 1 2 C4.63 2 8.26 2 12 2 C11.01 2.495 11.01 2.495 10 3 C10 3.66 10 4.32 10 5 C10.66 5.33 11.32 5.66 12 6 C8.04 6 4.08 6 0 6 C0 4.02 0 2.04 0 0 Z " fill="#446193" transform="translate(153,174)"/>
<path d="M0 0 C0.33 0 0.66 0 1 0 C1 1.98 1 3.96 1 6 C-0.65 6 -2.3 6 -4 6 C-4 5.01 -4 4.02 -4 3 C-4.66 3 -5.32 3 -6 3 C-6 3.99 -6 4.98 -6 6 C-11.75 5.25 -11.75 5.25 -14 3 C-9.27685687 2.22887459 -4.78478822 1.90235126 0 2 C0 1.34 0 0.68 0 0 Z " fill="#486494" transform="translate(134,174)"/>
<path d="M0 0 C2.64 0 5.28 0 8 0 C8 1.65 8 3.3 8 5 C4.79937313 6.60031344 2.27728194 5.03173691 -1 4 C-0.67 2.68 -0.34 1.36 0 0 Z " fill="#6D8BA9" transform="translate(240,193)"/>
<path d="M0 0 C3.96 0 7.92 0 12 0 C12 1.65 12 3.3 12 5 C11.67 3.68 11.34 2.36 11 1 C10.34 1 9.68 1 9 1 C8.67 2.32 8.34 3.64 8 5 C8 3.68 8 2.36 8 1 C7.34 1 6.68 1 6 1 C5.67 2.32 5.34 3.64 5 5 C3.35 5.33 1.7 5.66 0 6 C0 4.02 0 2.04 0 0 Z " fill="#6583A4" transform="translate(219,151)"/>
<path d="M0 0 C0.66 0 1.32 0 2 0 C2.66 1.32 3.32 2.64 4 4 C3.01 5.485 3.01 5.485 2 7 C-0.625 7.1875 -0.625 7.1875 -3 7 C-3.33 5.35 -3.66 3.7 -4 2 C-2.68 2 -1.36 2 0 2 C0 1.34 0 0.68 0 0 Z " fill="#7492AC" transform="translate(184,149)"/>
<path d="M0 0 C1.9375 0.8125 1.9375 0.8125 4 2 C4.33 2.99 4.66 3.98 5 5 C5.66 5 6.32 5 7 5 C7.33 3.35 7.66 1.7 8 0 C8.66 0 9.32 0 10 0 C10 1.98 10 3.96 10 6 C6.7 6 3.4 6 0 6 C0 4.02 0 2.04 0 0 Z " fill="#496695" transform="translate(245,174)"/>
<path d="M0 0 C0.33 0.99 0.66 1.98 1 3 C0.34 3 -0.32 3 -1 3 C-1 3.66 -1 4.32 -1 5 C-0.34 5.33 0.32 5.66 1 6 C-0.65 6 -2.3 6 -4 6 C-4 5.01 -4 4.02 -4 3 C-4.66 3 -5.32 3 -6 3 C-6 3.99 -6 4.98 -6 6 C-7.65 6 -9.3 6 -11 6 C-11 4.68 -11 3.36 -11 2 C-7.37 2 -3.74 2 0 2 C0 1.34 0 0.68 0 0 Z " fill="#3C588E" transform="translate(149,174)"/>
<path d="M0 0 C0.66 0 1.32 0 2 0 C2 2.31 2 4.62 2 7 C-0.31 6.67 -2.62 6.34 -5 6 C-5.33 4.68 -5.66 3.36 -6 2 C-4.68 2 -3.36 2 -2 2 C-2 2.66 -2 3.32 -2 4 C-1.34 4 -0.68 4 0 4 C0 2.68 0 1.36 0 0 Z " fill="#6784A5" transform="translate(92,202)"/>
<path d="M0 0 C2.97 0 5.94 0 9 0 C9.33 1.32 9.66 2.64 10 4 C6.30581799 5.231394 3.7943739 4.64432764 0 4 C0 2.68 0 1.36 0 0 Z " fill="#4E6A97" transform="translate(118,203)"/>
<path d="M0 0 C0.33 0.66 0.66 1.32 1 2 C1.99 2 2.98 2 4 2 C4 3.32 4 4.64 4 6 C1.36 6 -1.28 6 -4 6 C-4 4.68 -4 3.36 -4 2 C-2.68 2 -1.36 2 0 2 C0 1.34 0 0.68 0 0 Z " fill="#4F6C98" transform="translate(306,174)"/>
<path d="M0 0 C2.64 0 5.28 0 8 0 C8 1.65 8 3.3 8 5 C7.01 5.33 6.02 5.66 5 6 C5 5.34 5 4.68 5 4 C3.35 4 1.7 4 0 4 C0 2.68 0 1.36 0 0 Z " fill="#425E91" transform="translate(203,194)"/>
<path d="M0 0 C0 1.65 0 3.3 0 5 C-3.3 5 -6.6 5 -10 5 C-9.34 4.67 -8.68 4.34 -8 4 C-8 3.34 -8 2.68 -8 2 C-8.66 1.67 -9.32 1.34 -10 1 C-2.25 0 -2.25 0 0 0 Z " fill="#405C90" transform="translate(119,175)"/>
<path d="M0 0 C2.64 0 5.28 0 8 0 C8 1.32 8 2.64 8 4 C5.69 4 3.38 4 1 4 C0.67 2.68 0.34 1.36 0 0 Z " fill="#516D99" transform="translate(173,176)"/>
<path d="M0 0 C2.64 0 5.28 0 8 0 C8 1.32 8 2.64 8 4 C5.36 4 2.72 4 0 4 C0 2.68 0 1.36 0 0 Z " fill="#486494" transform="translate(102,185)"/>
<path d="M0 0 C0.66 0.33 1.32 0.66 2 1 C-1.96 4.96 -5.92 8.92 -10 13 C-10 8.79667349 -7.88331504 7.88331504 -5 5 C-5 4.01 -5 3.02 -5 2 C-2.625 0.9375 -2.625 0.9375 0 0 Z " fill="#53A4AB" transform="translate(209,113)"/>
<path d="M0 0 C0 1.65 0 3.3 0 5 C-2.31 5.33 -4.62 5.66 -7 6 C-7.33 4.68 -7.66 3.36 -8 2 C-1.125 0 -1.125 0 0 0 Z " fill="#435F92" transform="translate(85,202)"/>
<path d="M0 0 C2.64 0 5.28 0 8 0 C8 1.65 8 3.3 8 5 C7.67 3.68 7.34 2.36 7 1 C6.34 1 5.68 1 5 1 C4.67 2.32 4.34 3.64 4 5 C2.27917076 5 0.65771414 4.4277972 -1 4 C-0.67 2.68 -0.34 1.36 0 0 Z " fill="#607DA1" transform="translate(233,151)"/>
<path d="M0 0 C1.98 0 3.96 0 6 0 C6 1.65 6 3.3 6 5 C3.83125748 4.49396008 2.00032373 4.00016187 0 3 C-0.33 3.66 -0.66 4.32 -1 5 C-1.33 4.01 -1.66 3.02 -2 2 C-1.34 2 -0.68 2 0 2 C0 1.34 0 0.68 0 0 Z " fill="#6784A5" transform="translate(205,151)"/>
<path d="M0 0 C0.66 0.66 1.32 1.32 2 2 C1.67 2.66 1.34 3.32 1 4 C1.99 4 2.98 4 4 4 C3.67 4.99 3.34 5.98 3 7 C0.525 6.01 0.525 6.01 -2 5 C-2.66 5.66 -3.32 6.32 -4 7 C-4 5.02 -4 3.04 -4 1 C-2.125 0.375 -2.125 0.375 0 0 Z " fill="#4C6997" transform="translate(293,193)"/>
<path d="M0 0 C0 1.32 0 2.64 0 4 C-0.61875 3.814375 -1.2375 3.62875 -1.875 3.4375 C-4.04160178 2.76313824 -4.04160178 2.76313824 -6 4 C-6.66 3.34 -7.32 2.68 -8 2 C-8.66 2 -9.32 2 -10 2 C-10 1.34 -10 0.68 -10 0 C-6.42355152 -1.2380014 -3.66305234 -0.74926071 0 0 Z " fill="#435F92" transform="translate(190,194)"/>
<path d="M0 0 C0.33 1.98 0.66 3.96 1 6 C-0.9375 6.5625 -0.9375 6.5625 -3 7 C-4 6 -4 6 -4.0625 3.4375 C-4.041875 2.633125 -4.02125 1.82875 -4 1 C-2 0 -2 0 0 0 Z " fill="#6684A5" transform="translate(148,192)"/>
<path d="M0 0 C0.99 0.495 0.99 0.495 2 1 C2 1.66 2 2.32 2 3 C2.66 3 3.32 3 4 3 C4 2.01 4 1.02 4 0 C4.66 0 5.32 0 6 0 C6 1.98 6 3.96 6 6 C4.02 6 2.04 6 0 6 C0 4.02 0 2.04 0 0 Z " fill="#3C588E" transform="translate(76,174)"/>
<path d="M0 0 C0.66 0 1.32 0 2 0 C3.49498913 2.98997825 3.11577446 5.70042775 3 9 C2.67 9.99 2.34 10.98 2 12 C1.01 11.67 0.02 11.34 -1 11 C-0.73958333 9.01432292 -0.47916667 7.02864583 -0.21875 5.04296875 C0.053233 2.84528294 0.053233 2.84528294 0 0 Z " fill="#68B2B4" transform="translate(208,119)"/>
<path d="M0 0 C1.98 0.66 3.96 1.32 6 2 C6 2.99 6 3.98 6 5 C3.36 5 0.72 5 -2 5 C-1.34 4.67 -0.68 4.34 0 4 C0 2.68 0 1.36 0 0 Z " fill="#476494" transform="translate(260,193)"/>
<path d="M0 0 C2.97 0.495 2.97 0.495 6 1 C5.67 2.32 5.34 3.64 5 5 C3.0625 5.5625 3.0625 5.5625 1 6 C0 5 0 5 -0.0625 2.4375 C-0.041875 1.633125 -0.02125 0.82875 0 0 Z " fill="#435F92" transform="translate(98,193)"/>
<path d="M0 0 C0.33 0.66 0.66 1.32 1 2 C3.31 2 5.62 2 8 2 C7.67 3.32 7.34 4.64 7 6 C5.68 6 4.36 6 3 6 C3 5.01 3 4.02 3 3 C2.34 3 1.68 3 1 3 C0.67 3.99 0.34 4.98 0 6 C0 4.02 0 2.04 0 0 Z " fill="#35518A" transform="translate(199,174)"/>
<path d="M0 0 C2.97 0.495 2.97 0.495 6 1 C6 2.32 6 3.64 6 5 C4.02 5 2.04 5 0 5 C0 3.35 0 1.7 0 0 Z " fill="#486595" transform="translate(236,175)"/>
<path d="M0 0 C2.97 0.495 2.97 0.495 6 1 C6 2.32 6 3.64 6 5 C4.02 5 2.04 5 0 5 C0 3.35 0 1.7 0 0 Z " fill="#4B6896" transform="translate(91,175)"/>
<path d="M0 0 C2.475 0.495 2.475 0.495 5 1 C4.67 2.65 4.34 4.3 4 6 C2.68 6 1.36 6 0 6 C0 4.02 0 2.04 0 0 Z " fill="#5F7CA1" transform="translate(103,174)"/>
<path d="M0 0 C2.64 0 5.28 0 8 0 C7.67 1.32 7.34 2.64 7 4 C6.34 4 5.68 4 5 4 C5 3.01 5 2.02 5 1 C4.34 1 3.68 1 3 1 C3 1.99 3 2.98 3 4 C1.35 4 -0.3 4 -2 4 C-1.34 2.68 -0.68 1.36 0 0 Z " fill="#2B4785" transform="translate(279,176)"/>
<path d="M0 0 C0.33 0.66 0.66 1.32 1 2 C1.66 2 2.32 2 3 2 C3 1.34 3 0.68 3 0 C4.65 0 6.3 0 8 0 C8 1.65 8 3.3 8 5 C7.67 3.68 7.34 2.36 7 1 C6.34 1 5.68 1 5 1 C5 2.32 5 3.64 5 5 C4.34 5 3.68 5 3 5 C3 4.34 3 3.68 3 3 C2.34 3 1.68 3 1 3 C0.67 3.66 0.34 4.32 0 5 C0 3.35 0 1.7 0 0 Z " fill="#314D88" transform="translate(214,193)"/>
<path d="M0 0 C1.98 0 3.96 0 6 0 C6 1.65 6 3.3 6 5 C3.03 4.505 3.03 4.505 0 4 C0 2.68 0 1.36 0 0 Z " fill="#4D6A97" transform="translate(129,203)"/>
<path d="M0 0 C0 1.65 0 3.3 0 5 C-1.98 5 -3.96 5 -6 5 C-5.6875 3.0625 -5.6875 3.0625 -5 1 C-2 0 -2 0 0 0 Z " fill="#4B6896" transform="translate(140,193)"/>
<path d="M0 0 C1.32 0 2.64 0 4 0 C3.67 1.65 3.34 3.3 3 5 C1.68 4.67 0.36 4.34 -1 4 C-0.67 2.68 -0.34 1.36 0 0 Z " fill="#6885A6" transform="translate(103,203)"/>
<path d="M0 0 C0.33 1.32 0.66 2.64 1 4 C4.465 3.505 4.465 3.505 8 3 C7.67 3.99 7.34 4.98 7 6 C4.69 6 2.38 6 0 6 C0 4.02 0 2.04 0 0 Z " fill="#617EA2" transform="translate(76,193)"/>
<path d="M0 0 C0.66 0 1.32 0 2 0 C2 1.98 2 3.96 2 6 C0.68 6 -0.64 6 -2 6 C-2 4.68 -2 3.36 -2 2 C-1.34 2 -0.68 2 0 2 C0 1.34 0 0.68 0 0 Z " fill="#4F6C98" transform="translate(260,174)"/>
<path d="M0 0 C0.66 0 1.32 0 2 0 C2 1.98 2 3.96 2 6 C0.68 6 -0.64 6 -2 6 C-2 4.68 -2 3.36 -2 2 C-1.34 2 -0.68 2 0 2 C0 1.34 0 0.68 0 0 Z " fill="#4E6B98" transform="translate(184,174)"/>
<path d="M0 0 C0.99 0 1.98 0 3 0 C3 2.31 3 4.62 3 7 C2.01 7 1.02 7 0 7 C0 4.69 0 2.38 0 0 Z " fill="#4A6796" transform="translate(85,183)"/>
<path d="M0 0 C-0.33 0.66 -0.66 1.32 -1 2 C-0.34 2.33 0.32 2.66 1 3 C-1.64 3 -4.28 3 -7 3 C-6.67 2.01 -6.34 1.02 -6 0 C-3.42525708 -0.99667468 -2.51072708 -1.25536354 0 0 Z " fill="#405D91" transform="translate(282,195)"/>
<path d="M0 0 C1.32 0 2.64 0 4 0 C4 1.98 4 3.96 4 6 C2.68 5.67 1.36 5.34 0 5 C0.33 4.01 0.66 3.02 1 2 C0.67 1.67 0.34 1.34 0 1 C0 0.67 0 0.34 0 0 Z " fill="#617FA2" transform="translate(72,185)"/>
<path d="M0 0 C2.97 0.495 2.97 0.495 6 1 C5.67 1.66 5.34 2.32 5 3 C2.4375 3.625 2.4375 3.625 0 4 C0 2.68 0 1.36 0 0 Z " fill="#6E8CA9" transform="translate(89,185)"/>
<path d="M0 0 C0.33 0.66 0.66 1.32 1 2 C3.02463255 2.65213292 3.02463255 2.65213292 5 3 C4.34 3 3.68 3 3 3 C3 3.66 3 4.32 3 5 C3.66 5.33 4.32 5.66 5 6 C3.35 6 1.7 6 0 6 C0 4.02 0 2.04 0 0 Z " fill="#4F6C99" transform="translate(288,174)"/>
</svg>
